# xmcd
#
# Track frame offsets: 
#        150
#        15724
#        31904
#        50732
#        69398
#        84578
#        101689
#        117584
#        133281
#        151606
#
# Disc length: 2258 seconds
#
# Revision: 0
# Processed by: cddbd v1.5.2PL0 Copyright (c) Steve Scherf et al.
# Submitted via: ExactAudioCopy v0.99pb4
#
DISCID=8208d00a
DTITLE=แมงปอ ชลธิชา - ท้ารัก
DYEAR=2008
DGENRE=Country
TTITLE0=ท้ารัก
TTITLE1=ชอบคนมีตังค์
TTITLE2=แดจังกำ-ดำจังแก
TTITLE3=หมาหงอยคอยพี่
TTITLE4=รีบมาขออย่ารอโลกแตก
TTITLE5=อยากเป็นลม
TTITLE6=น้ำมันแพงก็แต่งได้
TTITLE7=ติดตามตอนต่อไป
TTITLE8=ลุยต่อ
TTITLE9=รักน้องไม่ต้องกลัวไฟแนนซ์
EXTD=
EXTT0=
EXTT1=
EXTT2=
EXTT3=
EXTT4=
EXTT5=
EXTT6=
EXTT7=
EXTT8=
EXTT9=
PLAYORDER=
